<svg xmlns="http://www.w3.org/2000/svg" viewBox="0 0 512 512">
  <path d="M443.103 71.306H416.76V44.963a9.31 9.31 0 00-9.31-9.31h-26.342V9.31a9.31 9.31 0 00-9.31-9.31h-302.9a9.31 9.31 0 00-9.31 9.31v422.074a9.31 9.31 0 009.31 9.31H95.24v26.342a9.31 9.31 0 009.31 9.31h26.342v26.342a9.31 9.31 0 009.31 9.31h302.9a9.31 9.31 0 009.31-9.31V80.616a9.308 9.308 0 00-9.309-9.31zM78.208 422.074V18.621h284.279v403.453H78.208zm35.654 35.652v-17.032h257.935a9.31 9.31 0 009.31-9.31V54.274h17.033v403.453H113.862zm319.93 35.653H149.513v-17.032H407.45a9.31 9.31 0 009.31-9.31V89.927h17.032v403.452z"/>
  <path d="M271.292 95.592H169.404c-5.143 0-9.31 4.169-9.31 9.31s4.167 9.31 9.31 9.31h101.887c5.143 0 9.31-4.169 9.31-9.31s-4.166-9.31-9.309-9.31zM313.448 141.771h-186.2c-5.143 0-9.31 4.169-9.31 9.31s4.167 9.31 9.31 9.31h186.2a9.31 9.31 0 000-18.62zM313.448 187.948h-186.2c-5.143 0-9.31 4.169-9.31 9.31s4.167 9.31 9.31 9.31h186.2a9.31 9.31 0 000-18.62zM313.448 234.125h-186.2c-5.143 0-9.31 4.169-9.31 9.31s4.167 9.31 9.31 9.31h186.2a9.31 9.31 0 000-18.62zM313.448 280.303h-186.2c-5.143 0-9.31 4.169-9.31 9.31s4.167 9.31 9.31 9.31h186.2a9.31 9.31 0 000-18.62zM313.448 326.48h-186.2c-5.143 0-9.31 4.169-9.31 9.31s4.167 9.31 9.31 9.31h186.2a9.31 9.31 0 000-18.62z"/>
</svg>
