<svg xmlns="http://www.w3.org/2000/svg" viewBox="0 0 500 500" fill="currentColor"><path d="M367.6 192.9c-3.8-1.3-7.7-2.5-11.7-3.7.7-2.7 1.3-5.4 1.8-8 8.9-43.2 3.1-78-16.8-89.4-19-11-50.2.5-81.6 27.8-3 2.6-6.1 5.4-9.1 8.3-2-1.9-4-3.8-6-5.6-33-29.3-66-41.6-85.8-30.1-19 11-24.7 43.7-16.7 84.6.8 4 1.7 8 2.7 12.1-4.7 1.3-9.2 2.7-13.5 4.2-38.6 13.5-63.3 34.6-63.3 56.5 0 22.6 26.5 45.3 66.7 59.1 3.2 1.1 6.5 2.1 9.9 3.1-1.1 4.4-2.1 8.8-2.9 13-7.6 40.2-1.7 72.1 17.3 83.1 19.6 11.3 52.5-.3 84.5-28.3 2.5-2.2 5.1-4.6 7.6-7 3.3 3.2 6.6 6.2 9.9 9 31 26.7 61.7 37.5 80.6 26.5 19.6-11.3 25.9-45.6 17.7-87.4-.6-3.2-1.4-6.4-2.2-9.8 2.3-.7 4.6-1.4 6.8-2.1 41.8-13.9 69.1-36.3 69.1-59.2-.1-21.9-25.6-43.1-65-56.7zm-9.1 101.2c-2 .7-4 1.3-6.1 1.9-4.6-14.6-10.9-30.2-18.5-46.2 7.3-15.7 13.3-31 17.8-45.6 3.7 1.1 7.4 2.2 10.9 3.4 33.8 11.6 54.4 28.8 54.4 42.1-.1 14.1-22.3 32.4-58.5 44.4zm-15 29.7c3.7 18.5 4.2 35.1 1.8 48.2-2.2 11.7-6.5 19.5-12 22.7-11.5 6.7-36.1-2-62.6-24.8-3-2.6-6.1-5.4-9.2-8.4 10.3-11.2 20.6-24.3 30.6-38.8 17.6-1.6 34.3-4.1 49.4-7.6.8 2.9 1.5 5.8 2 8.7zm-151.6 69.7c-11.2 4-20.2 4.1-25.6 1-11.5-6.6-16.3-32.3-9.8-66.7.7-3.9 1.6-8 2.7-12.1 15 3.3 31.5 5.7 49.2 7.1 10.1 14.2 20.7 27.3 31.3 38.7-2.3 2.2-4.6 4.4-7 6.4-14.1 12.4-28.3 21.2-40.8 25.6zM139.3 294c-17.8-6.1-32.5-14-42.6-22.6-9.1-7.8-13.6-15.4-13.6-21.7 0-13.3 19.8-30.2 52.9-41.8 4-1.4 8.2-2.7 12.6-4 4.6 14.9 10.6 30.4 17.8 46.1-7.3 15.9-13.4 31.7-18 46.8-3.2-.9-6.2-1.8-9.1-2.8zm17.6-120.1c-6.9-35.1-2.3-61.5 9.2-68.1 12.2-7.1 39.2 3 67.7 28.3 1.8 1.6 3.6 3.3 5.5 5.1-10.6 11.4-21.1 24.4-31.1 38.5-17.2 1.6-33.6 4.1-48.7 7.6-1-4-1.8-7.8-2.6-11.4zm157.5 38.8c-3.6-6.2-7.3-12.3-11.1-18.3 11.6 1.5 22.8 3.4 33.3 5.8-3.1 10.1-7.1 20.6-11.7 31.4-3.3-6.1-6.8-12.5-10.5-18.9zm-64.2-62.5c7.2 7.8 14.4 16.5 21.5 25.9-7.1-.3-14.4-.5-21.7-.5-7.2 0-14.4.2-21.5.5 7.1-9.3 14.4-18 21.7-25.9zm-64.6 62.7c-3.6 6.3-7 12.6-10.3 18.9-4.5-10.8-8.4-21.4-11.6-31.6 10.4-2.3 21.5-4.2 33.1-5.7-3.9 5.9-7.6 12.1-11.2 18.4zm11.5 93.1c-12-1.3-23.2-3.1-33.6-5.4 3.2-10.4 7.2-21.2 11.8-32.2 3.3 6.3 6.7 12.6 10.3 18.9 3.7 6.4 7.5 12.6 11.5 18.7zm53.5 44.3c-7.4-8-14.8-16.8-22-26.3 7 .3 14.1.4 21.4.4 7.4 0 14.8-.2 22-.5-7.1 9.7-14.3 18.5-21.4 26.4zm74.4-82.5c4.9 11.1 9 21.9 12.3 32.1-10.6 2.4-22 4.4-34 5.8 3.8-6 7.5-12.2 11.2-18.6 3.7-6.4 7.2-12.8 10.5-19.3zm-24.1 11.6c-5.7 9.9-11.6 19.3-17.5 28.3-10.8.8-22 1.2-33.4 1.2-11.4 0-22.4-.4-33-1-6.2-9-12.2-18.5-17.8-28.3-5.7-9.8-10.9-19.6-15.6-29.4 4.7-9.8 9.9-19.7 15.5-29.4 5.6-9.8 11.6-19.2 17.7-28.2 10.9-.8 22-1.2 33.2-1.2 11.3 0 22.4.4 33.3 1.3 6 8.9 11.9 18.3 17.6 28.1 5.7 9.9 11 19.7 15.7 29.3-4.7 9.5-10 19.4-15.7 29.3zm32.2-174.1c12.2 7 17 35.5 9.3 72.8-.5 2.4-1 4.8-1.6 7.3-15.1-3.5-31.6-6.1-48.8-7.7-10-14.3-20.4-27.3-30.9-38.5 2.8-2.7 5.6-5.3 8.4-7.7 26.9-23.6 52.1-32.8 63.6-26.2zM250 217.1c18 0 32.6 14.6 32.6 32.6S268 282.3 250 282.3s-32.6-14.6-32.6-32.6 14.6-32.6 32.6-32.6z"/></svg>
