<svg width="32" height="32" fill="#1977f2" xmlns="http://www.w3.org/2000/svg"><path d="M26.31 10.978a21.425 21.425 0 00-1.03-.325c.058-.237.112-.472.16-.702.78-3.785.27-6.835-1.472-7.839-1.669-.962-4.4.041-7.156 2.441-.265.23-.531.475-.797.731-.177-.17-.354-.333-.53-.49-2.89-2.565-5.787-3.647-7.526-2.64-1.668.966-2.162 3.832-1.46 7.42.068.346.147.7.237 1.06-.41.116-.806.24-1.184.372C2.164 12.187 0 14.038 0 15.959c0 1.983 2.323 3.972 5.851 5.178.279.095.568.185.866.27-.097.39-.181.77-.252 1.143-.669 3.525-.146 6.324 1.517 7.283 1.718.99 4.602-.028 7.41-2.482.221-.194.444-.4.667-.615.29.278.578.542.865.789 2.72 2.34 5.406 3.285 7.067 2.323 1.717-.993 2.275-4 1.55-7.658a18.09 18.09 0 00-.191-.856c.202-.06.4-.121.595-.186 3.668-1.215 6.055-3.18 6.055-5.19 0-1.927-2.233-3.79-5.69-4.98zm-.795 8.873c-.175.058-.355.114-.538.168a32.06 32.06 0 00-1.62-4.054 32.047 32.047 0 001.557-3.995c.328.095.645.195.951.3 2.962 1.02 4.768 2.527 4.768 3.689 0 1.236-1.95 2.842-5.118 3.892zM24.2 22.455c.32 1.618.365 3.08.153 4.224-.19 1.027-.574 1.712-1.047 1.986-1.009.584-3.165-.175-5.491-2.176-.267-.23-.535-.475-.805-.734a32.098 32.098 0 002.682-3.406 31.897 31.897 0 004.334-.668c.066.264.123.522.174.774zm-13.292 6.11c-.985.347-1.77.357-2.244.084-1.01-.582-1.429-2.83-.856-5.844.065-.346.143-.7.233-1.063 1.31.29 2.762.499 4.312.625a33.288 33.288 0 002.747 3.393c-.204.197-.407.385-.61.562-1.24 1.085-2.485 1.855-3.582 2.242zm-4.615-8.722c-1.56-.533-2.85-1.226-3.733-1.983-.793-.68-1.194-1.354-1.194-1.901 0-1.166 1.737-2.652 4.635-3.662.351-.123.72-.238 1.101-.347a32.77 32.77 0 001.56 4.042 33.3 33.3 0 00-1.58 4.099c-.272-.079-.536-.16-.79-.248zM7.84 9.311c-.602-3.073-.202-5.392.803-5.974 1.07-.62 3.438.264 5.933 2.48.16.141.32.29.48.443a32.757 32.757 0 00-2.726 3.373c-1.505.14-2.946.364-4.27.664a20.04 20.04 0 01-.22-.986zm13.803 3.408a43.506 43.506 0 00-.973-1.6c1.021.13 2 .3 2.918.51-.276.884-.62 1.808-1.024 2.756a47.536 47.536 0 00-.92-1.666zm-5.629-5.482a29.21 29.21 0 011.883 2.273 40.252 40.252 0 00-3.782 0 30.151 30.151 0 011.9-2.273zm-5.665 5.492a40.383 40.383 0 00-.903 1.655 30.172 30.172 0 01-1.017-2.77 30.81 30.81 0 012.901-.497 40.233 40.233 0 00-.98 1.612zm1.01 8.169a29.106 29.106 0 01-2.949-.474c.283-.913.63-1.86 1.037-2.825a40.513 40.513 0 001.912 3.3zm4.693 3.879a30.679 30.679 0 01-1.925-2.305A47.86 47.86 0 0016 22.51c.652 0 1.297-.015 1.932-.043a29.079 29.079 0 01-1.879 2.31zm6.525-7.227a29.01 29.01 0 011.074 2.814c-.927.212-1.93.383-2.985.51.333-.527.66-1.07.983-1.629a43.5 43.5 0 00.928-1.695zm-2.112 1.012c-.5.867-1.014 1.695-1.536 2.477-.95.068-1.93.103-2.93.103-.996 0-1.964-.031-2.897-.092a38.382 38.382 0 01-2.93-5.059 38.453 38.453 0 012.913-5.05 38.486 38.486 0 015.833 0c.53.783 1.046 1.606 1.542 2.463.502.867.963 1.726 1.38 2.568a41.219 41.219 0 01-1.375 2.59zm2.82-15.265c1.071.618 1.488 3.11.815 6.378-.043.208-.092.42-.144.636a32.752 32.752 0 00-4.279-.676 32.114 32.114 0 00-2.705-3.376c.246-.236.492-.462.736-.675 2.363-2.056 4.57-2.868 5.577-2.287zM16 13.1a2.858 2.858 0 110 5.715 2.858 2.858 0 010-5.715z"/></svg>
